<svg id="visual" viewBox="0 0 900 600" width="900" height="600" xmlns="http://www.w3.org/2000/svg" xmlns:xlink="http://www.w3.org/1999/xlink" version="1.1"><rect x="0" y="0" width="900" height="600" fill="#ffffff"></rect><path d="M0 403L21.5 407.2C43 411.3 86 419.7 128.8 427.2C171.7 434.7 214.3 441.3 257.2 433.8C300 426.3 343 404.7 385.8 403.8C428.7 403 471.3 423 514.2 421.3C557 419.7 600 396.3 642.8 381C685.7 365.7 728.3 358.3 771.2 357C814 355.7 857 360.3 878.5 362.7L900 365L900 601L878.5 601C857 601 814 601 771.2 601C728.3 601 685.7 601 642.8 601C600 601 557 601 514.2 601C471.3 601 428.7 601 385.8 601C343 601 300 601 257.2 601C214.3 601 171.7 601 128.8 601C86 601 43 601 21.5 601L0 601Z" fill="#ff8400"></path><path d="M0 394L21.5 406.5C43 419 86 444 128.8 450.2C171.7 456.3 214.3 443.7 257.2 443.3C300 443 343 455 385.8 453.2C428.7 451.3 471.3 435.7 514.2 437.8C557 440 600 460 642.8 469.7C685.7 479.3 728.3 478.7 771.2 471.5C814 464.3 857 450.7 878.5 443.8L900 437L900 601L878.5 601C857 601 814 601 771.2 601C728.3 601 685.7 601 642.8 601C600 601 557 601 514.2 601C471.3 601 428.7 601 385.8 601C343 601 300 601 257.2 601C214.3 601 171.7 601 128.8 601C86 601 43 601 21.5 601L0 601Z" fill="#ffab56"></path><path d="M0 448L21.5 447.2C43 446.3 86 444.7 128.8 449.8C171.7 455 214.3 467 257.2 466.5C300 466 343 453 385.8 455.7C428.7 458.3 471.3 476.7 514.2 480.2C557 483.7 600 472.3 642.8 468.5C685.7 464.7 728.3 468.3 771.2 468C814 467.7 857 463.3 878.5 461.2L900 459L900 601L878.5 601C857 601 814 601 771.2 601C728.3 601 685.7 601 642.8 601C600 601 557 601 514.2 601C471.3 601 428.7 601 385.8 601C343 601 300 601 257.2 601C214.3 601 171.7 601 128.8 601C86 601 43 601 21.5 601L0 601Z" fill="#ffc07d"></path><path d="M0 517L21.5 519C43 521 86 525 128.8 521C171.7 517 214.3 505 257.2 501C300 497 343 501 385.8 501.8C428.7 502.7 471.3 500.3 514.2 506C557 511.7 600 525.3 642.8 525.5C685.7 525.7 728.3 512.3 771.2 509.2C814 506 857 513 878.5 516.5L900 520L900 601L878.5 601C857 601 814 601 771.2 601C728.3 601 685.7 601 642.8 601C600 601 557 601 514.2 601C471.3 601 428.7 601 385.8 601C343 601 300 601 257.2 601C214.3 601 171.7 601 128.8 601C86 601 43 601 21.5 601L0 601Z" fill="#ffab56"></path><path d="M0 560L21.5 561.2C43 562.3 86 564.7 128.8 562.8C171.7 561 214.3 555 257.2 551.7C300 548.3 343 547.7 385.8 551.7C428.7 555.7 471.3 564.3 514.2 561C557 557.7 600 542.3 642.8 540.5C685.7 538.7 728.3 550.3 771.2 556.2C814 562 857 562 878.5 562L900 562L900 601L878.5 601C857 601 814 601 771.2 601C728.3 601 685.7 601 642.8 601C600 601 557 601 514.2 601C471.3 601 428.7 601 385.8 601C343 601 300 601 257.2 601C214.3 601 171.7 601 128.8 601C86 601 43 601 21.5 601L0 601Z" fill="#ff8400"></path></svg>