<svg id="visual" viewBox="0 0 900 600" width="900" height="600" xmlns="http://www.w3.org/2000/svg" xmlns:xlink="http://www.w3.org/1999/xlink" version="1.1"><rect x="0" y="0" width="900" height="600" fill="#001220"></rect><defs><linearGradient id="grad1_0" x1="33.3%" y1="0%" x2="100%" y2="100%"><stop offset="20%" stop-color="#001220" stop-opacity="1"></stop><stop offset="80%" stop-color="#001220" stop-opacity="1"></stop></linearGradient></defs><defs><linearGradient id="grad2_0" x1="0%" y1="0%" x2="66.7%" y2="100%"><stop offset="20%" stop-color="#001220" stop-opacity="1"></stop><stop offset="80%" stop-color="#001220" stop-opacity="1"></stop></linearGradient></defs><g transform="translate(900, 0)"><path d="M0 324.5C-42.3 320.2 -84.6 315.9 -124.2 299.8C-163.8 283.7 -200.8 255.8 -221.3 221.3C-241.9 186.9 -246.1 145.9 -260.5 107.9C-275 69.9 -299.7 35 -324.5 0L0 0Z" fill="#F0A04B"></path></g><g transform="translate(0, 600)"><path d="M0 -324.5C41.2 -309.7 82.3 -294.9 112.9 -272.5C143.4 -250.2 163.4 -220.1 196.6 -196.6C229.8 -173 276.3 -155.9 299.8 -124.2C323.3 -92.5 323.9 -46.2 324.5 0L0 0Z" fill="#F0A04B"></path></g></svg>